<svg width="18" height="19" viewBox="0 0 18 19" fill="none" xmlns="http://www.w3.org/2000/svg">
<path d="M13.3418 5.00879H13.3438C14.7822 5.11204 15.866 5.55089 16.6445 6.29102C15.356 7.14374 14.6297 8.28891 14.5469 9.7168L14.5391 10.0459V10.0469C14.5555 11.4108 15.1199 12.5545 16.1973 13.4443V13.4453C16.5509 13.7437 16.9356 13.9916 17.3506 14.1914C17.2926 14.3264 17.2339 14.4587 17.1729 14.5879C16.9419 15.0622 16.6798 15.5071 16.3857 15.9248L16.0811 16.334C15.5573 16.9979 15.1369 17.4562 14.8184 17.7314L14.6885 17.8379L14.6777 17.8467C14.163 18.2676 13.6356 18.4655 13.084 18.4775C12.7285 18.4764 12.2838 18.3969 11.7451 18.2188L11.5068 18.1357H11.5049C10.7782 17.8722 10.0901 17.7334 9.44336 17.7334C8.85502 17.7334 8.24114 17.8387 7.60352 18.042L7.3291 18.1348C6.73874 18.3472 6.28051 18.4588 5.94043 18.4902L5.80273 18.499H5.79883C5.30343 18.5178 4.77069 18.3284 4.19043 17.8486L4.17871 17.8389L4.03613 17.7217C3.78916 17.509 3.49458 17.2056 3.15137 16.8047L2.71582 16.2754L2.71484 16.2744L2.48438 15.9736C2.03277 15.3588 1.64147 14.6702 1.3125 13.9043L1.15332 13.5146C0.71483 12.3787 0.500044 11.2921 0.5 10.251C0.5 9.13588 0.753042 8.18905 1.24316 7.39453L1.34375 7.23828L1.34668 7.23438C1.7309 6.65132 2.22598 6.17501 2.83887 5.80371L3.10938 5.65039C3.84673 5.26132 4.64394 5.06117 5.51074 5.04785C5.94749 5.04858 6.5639 5.17207 7.38477 5.44434V5.44336C7.80882 5.58487 8.16427 5.69512 8.44824 5.76953C8.7176 5.8401 8.96727 5.89159 9.15625 5.8916C9.2576 5.8916 9.3731 5.87094 9.47266 5.84961C9.58302 5.82596 9.71691 5.79184 9.87109 5.74902C10.1801 5.66323 10.5915 5.53654 11.1016 5.37012L11.1006 5.36914C11.9101 5.1103 12.5786 4.99577 13.1182 5L13.3418 5.00879ZM12.9922 0.561523C12.9526 1.19565 12.7053 1.81167 12.2158 2.41309L11.9678 2.69434C11.2235 3.46712 10.3832 3.92137 9.50195 3.98828C9.5425 3.3193 9.86868 2.5825 10.4619 1.93359L10.5938 1.7959L10.5957 1.79297C10.9397 1.44195 11.3876 1.1395 11.9502 0.892578L11.9492 0.891602C12.3176 0.732148 12.6654 0.62447 12.9922 0.561523Z" fill="white" stroke="black"/>
</svg>
