<svg width="50" height="50" viewBox="0 0 50 50" fill="none" xmlns="http://www.w3.org/2000/svg">
<g clip-path="url(#clip0_1621_1084)">
<path d="M40.0831 22.3935C39.9618 26.2247 38.6177 29.9176 36.2461 32.9354C33.8746 35.9531 30.5992 38.1385 26.8959 39.1739C23.1927 40.2094 19.2546 40.0408 15.6541 38.6928C12.0536 37.3448 8.97823 34.8876 6.875 31.6783L6.88024 31.6726L6.9031 31.6612C6.90882 31.6612 6.90882 31.6555 6.91453 31.6555C6.92025 31.6441 6.92597 31.6441 6.93168 31.6384L12.6911 27.8884L37.1467 11.9561V11.9618C37.2091 12.0525 37.2658 12.1432 37.3229 12.2395C37.4596 12.4493 37.5849 12.6667 37.7097 12.8865C37.8292 13.0906 37.9431 13.2947 38.0512 13.5036C38.2165 13.8098 38.3703 14.1273 38.5065 14.4454C38.5751 14.5868 38.6379 14.7292 38.6947 14.8726C38.7856 15.0824 38.8652 15.2865 38.9447 15.502C39.0076 15.6553 39.0586 15.8139 39.11 15.9729C39.1576 16.0921 39.1953 16.2103 39.2353 16.3356C39.3886 16.8178 39.5253 17.3058 39.6392 17.8047C39.9881 19.3083 40.1373 20.8511 40.0831 22.3935Z" fill="url(#paint0_linear_1621_1084)"/>
<g style="mix-blend-mode:multiply" opacity="0.16">
<g style="mix-blend-mode:multiply">
<path d="M39.6392 17.8047L6.875 31.6783L37.1467 11.957C38.3184 13.7438 39.1624 15.7237 39.6392 17.8047Z" fill="#333333"/>
</g>
</g>
<path d="M42.9688 8.1681L42.963 8.17385C42.9573 8.17385 42.9516 8.18519 42.9407 8.18519C42.9338 8.19563 42.9238 8.20361 42.9121 8.20798L37.1489 11.9627L12.6928 27.8893C12.6304 27.7944 12.5732 27.7023 12.5165 27.6045C10.0178 23.6591 9.16168 18.898 10.1303 14.3333C10.2576 13.7304 10.4153 13.1343 10.6028 12.5471C10.6072 12.5379 10.611 12.5283 10.6142 12.5186C10.6191 12.4913 10.6268 12.4646 10.637 12.4389C11.6798 9.24483 13.5979 6.40503 16.1747 4.24018C18.7515 2.07534 21.8845 0.671729 25.2195 0.187874C28.5546 -0.295981 31.959 0.159206 35.0483 1.50202C38.1375 2.84483 40.7884 5.02175 42.7016 7.78693C42.7096 7.796 42.717 7.80554 42.7239 7.81541C42.8097 7.92981 42.8902 8.04896 42.9688 8.1681Z" fill="url(#paint1_linear_1621_1084)"/>
<g style="mix-blend-mode:multiply" opacity="0.25">
<g style="mix-blend-mode:multiply">
<path d="M37.3228 12.2404C35.7119 13.3749 33.8396 14.6613 31.8191 16.0237C30.7713 16.7271 29.6967 17.4643 28.587 18.1906C27.4772 18.9169 26.3555 19.6593 25.2348 20.3969C24.1021 21.1284 22.9695 21.8547 21.853 22.5748C20.7375 23.284 19.6335 23.9817 18.5694 24.6563C16.4294 26.0006 14.4256 27.2371 12.69 28.2753C10.9658 29.3243 9.49879 30.1583 8.48428 30.7593C7.59074 31.2814 7.02728 31.5933 6.90201 31.6612C6.90877 31.6507 6.91881 31.6427 6.93058 31.6384L37.1456 11.957C37.2089 12.0477 37.2656 12.1441 37.3228 12.2404Z" fill="#333333"/>
</g>
</g>
<g style="mix-blend-mode:screen" opacity="0.7">
<g style="mix-blend-mode:screen">
<path d="M42.9402 8.1852C42.9334 8.1956 42.9234 8.20357 42.9117 8.20798L12.6924 27.8894C12.63 27.7944 12.5729 27.7023 12.5162 27.6045C14.127 26.4757 16.005 25.1837 18.025 23.8213C19.0729 23.1178 20.1536 22.392 21.2577 21.6544C22.3617 20.9286 23.4886 20.1857 24.6099 19.448C25.7425 18.7166 26.8751 17.9903 27.9916 17.2702C29.108 16.5501 30.2112 15.8637 31.2752 15.1887C33.4095 13.8444 35.419 12.6078 37.1542 11.564C38.8788 10.515 40.3454 9.68663 41.3604 9.08568C42.2515 8.56495 42.815 8.25308 42.9402 8.1852Z" fill="white"/>
</g>
</g>
<g style="mix-blend-mode:screen" opacity="0.25">
<g style="mix-blend-mode:screen">
<path d="M37.8181 21.7692C37.8221 22.8711 37.7076 23.9703 37.4766 25.0478C37.0553 27.0745 36.2367 28.9982 35.0675 30.7086C33.8983 32.4191 32.4017 33.8826 30.6636 35.0151C28.9254 36.1477 26.9799 36.9269 24.9388 37.3082C22.8977 37.6894 20.8011 37.6652 18.7694 37.2368C15.4299 36.5531 12.406 34.8003 10.1584 32.2455L10.3237 32.1377L37.8181 21.7692Z" fill="white"/>
</g>
</g>
<g style="mix-blend-mode:screen" opacity="0.25">
<g style="mix-blend-mode:screen">
<path d="M39.6848 7.60091L39.3605 7.81072L12.3157 15.0084C12.3271 14.9405 12.3381 14.866 12.3552 14.7985C12.7779 12.7715 13.5979 10.8477 14.7682 9.13717C15.9385 7.4267 17.4362 5.96329 19.1752 4.83088C20.9142 3.69845 22.8605 2.91932 24.9023 2.53814C26.9442 2.15697 29.0414 2.18126 31.0738 2.6096C34.4123 3.29606 37.4353 5.04834 39.6848 7.60091Z" fill="white"/>
</g>
</g>
<g style="mix-blend-mode:multiply" opacity="0.16">
<g style="mix-blend-mode:multiply">
<path d="M40.0831 22.3935C39.9618 26.2248 38.6177 29.9176 36.2461 32.9354C33.8746 35.9531 30.5992 38.1385 26.8959 39.174C23.1927 40.2094 19.2546 40.0408 15.6541 38.6928C12.0536 37.3448 8.97822 34.8876 6.875 31.6783C7.45066 32.434 8.07212 33.1538 8.7359 33.8339C10.0699 35.1588 11.5925 36.2806 13.2546 37.1633C14.9006 38.0383 16.6726 38.6543 18.5077 38.9894L19.8851 39.1821C20.3457 39.2619 20.8125 39.2391 21.2735 39.2728L21.968 39.3013L22.6624 39.2676C23.1231 39.2572 23.5828 39.2211 24.0394 39.1593L25.4112 38.9495L26.7543 38.6097C27.2097 38.5147 27.6364 38.3201 28.0746 38.1824C28.5137 38.0376 28.9418 37.8613 29.3554 37.6551C30.1976 37.2738 31.0096 36.8295 31.7845 36.326L32.9224 35.5261C33.2811 35.237 33.6283 34.9309 33.9812 34.6299C34.3299 34.3242 34.6623 34.0004 34.9772 33.6601L35.4668 33.1612L35.8993 32.6225C36.4907 31.9028 37.0307 31.1428 37.5154 30.3478L38.1755 29.1112C38.4089 28.703 38.5456 28.2606 38.739 27.8353C38.8299 27.6198 38.9295 27.4081 39.0124 27.1888L39.2229 26.5081C39.3539 26.0543 39.5301 25.5948 39.6268 25.1467C39.8363 24.2393 39.9887 23.3198 40.0831 22.3935Z" fill="#333333"/>
</g>
</g>
<g style="mix-blend-mode:screen" opacity="0.7">
<g style="mix-blend-mode:screen">
<path d="M42.6995 7.78756C42.6519 7.73108 42.5799 7.64516 42.4833 7.53266C42.3065 7.30006 42.007 6.9825 41.6464 6.56857C40.614 5.47015 39.4566 4.49553 38.1975 3.66447C37.3676 3.11098 36.494 2.62537 35.5855 2.21241C34.5769 1.76155 33.5316 1.3971 32.461 1.12301C32.1876 1.04943 31.8803 0.992944 31.5898 0.924589C31.3226 0.862406 31.0154 0.839626 30.7325 0.788834C30.4367 0.748961 30.1461 0.709087 29.8504 0.663992C29.5489 0.629815 29.2531 0.624114 28.9511 0.601329C28.6496 0.589937 28.3481 0.561935 28.0461 0.553866L27.1302 0.587568C26.52 0.604766 25.9116 0.661685 25.3088 0.75798C25.0061 0.789257 24.7057 0.840319 24.4096 0.910828L23.5103 1.1007C22.924 1.24785 22.3439 1.45244 21.769 1.62808C21.217 1.86542 20.6478 2.05909 20.1186 2.32017C19.8566 2.4507 19.5947 2.58646 19.3332 2.717L18.9402 2.91542L18.5763 3.14232C18.0924 3.45467 17.5971 3.72666 17.1589 4.0727C16.3011 4.69159 15.4994 5.38428 14.7631 6.14278C14.4173 6.47853 14.0923 6.83473 13.7895 7.2094C13.4995 7.57206 13.2208 7.9238 12.9589 8.2537C12.7207 8.61114 12.4978 8.9401 12.2816 9.25766C11.8662 9.88757 11.5871 10.4885 11.3085 10.9665C10.9155 11.8513 10.6712 12.4015 10.614 12.5206C10.6108 12.5304 10.607 12.5399 10.6026 12.5491C10.6026 12.5491 10.614 12.5093 10.6369 12.4409C11.6796 9.24689 13.5977 6.40709 16.1746 4.24224C18.7514 2.0774 21.8843 0.673776 25.2194 0.189922C28.5545 -0.293933 31.9589 0.161254 35.0481 1.50407C38.1373 2.84689 40.7882 5.02381 42.7014 7.78899L42.6995 7.78756Z" fill="white"/>
</g>
</g>
<path d="M0 46.8794C0 46.2733 0.133245 45.7343 0.399735 45.2622C0.666225 44.7844 1.03635 44.4143 1.51011 44.1521C1.98979 43.884 2.53166 43.75 3.1357 43.75C3.87595 43.75 4.5096 43.9423 5.03666 44.3269C5.56372 44.7115 5.91608 45.236 6.09374 45.9003H4.42374C4.29937 45.6439 4.12171 45.4487 3.89076 45.3147C3.66572 45.1807 3.40811 45.1136 3.11793 45.1136C2.6501 45.1136 2.27109 45.2739 1.98091 45.5944C1.69073 45.9149 1.54564 46.3432 1.54564 46.8794C1.54564 47.4155 1.69073 47.8438 1.98091 48.1643C2.27109 48.4848 2.6501 48.6451 3.11793 48.6451C3.40811 48.6451 3.66572 48.5781 3.89076 48.4441C4.12171 48.31 4.29937 48.1148 4.42374 47.8584H6.09374C5.91608 48.5227 5.56372 49.0472 5.03666 49.4318C4.5096 49.8106 3.87595 50 3.1357 50C2.53166 50 1.98979 49.8689 1.51011 49.6066C1.03635 49.3386 0.666225 48.9685 0.399735 48.4965C0.133245 48.0245 0 47.4854 0 46.8794Z" fill="#E09FA3"/>
<path d="M8.54295 43.8199V49.9563H7.02396V43.8199H8.54295Z" fill="#E09FA3"/>
<path d="M14.1297 43.8199V45.0175H12.4774V49.9563H10.9584V45.0175H9.3062V43.8199H14.1297Z" fill="#E09FA3"/>
<path d="M20.2396 43.8199L18.081 47.9283V49.9563H16.562V47.9283L14.4034 43.8199H16.1267L17.3348 46.3899L18.534 43.8199H20.2396Z" fill="#E09FA3"/>
<path d="M24.253 45.0175V46.2587H26.2872V47.4126H24.253V48.7587H26.5537V49.9563H22.734V43.8199H26.5537V45.0175H24.253Z" fill="#E09FA3"/>
<path d="M33.3938 43.8199L31.1819 49.9563H29.2809L27.0691 43.8199H28.6858L30.2314 48.4528L31.786 43.8199H33.3938Z" fill="#E09FA3"/>
<path d="M35.5476 45.0175V46.2587H37.5818V47.4126H35.5476V48.7587H37.8483V49.9563H34.0286V43.8199H37.8483V45.0175H35.5476Z" fill="#E09FA3"/>
<path d="M44.413 49.9563H42.894L40.3535 46.1713V49.9563H38.8345V43.8199H40.3535L42.894 47.6224V43.8199H44.413V49.9563Z" fill="#E09FA3"/>
<path d="M50 43.8199V45.0175H48.3478V49.9563H46.8288V45.0175H45.1765V43.8199H50Z" fill="#E09FA3"/>
</g>
<defs>
<linearGradient id="paint0_linear_1621_1084" x1="23.4845" y1="11.9561" x2="23.4845" y2="39.8437" gradientUnits="userSpaceOnUse">
<stop stop-color="#E09FA3" stop-opacity="0.7"/>
<stop offset="0.74" stop-color="#F7CAC9" stop-opacity="0.3"/>
</linearGradient>
<linearGradient id="paint1_linear_1621_1084" x1="26.355" y1="0" x2="26.355" y2="27.8893" gradientUnits="userSpaceOnUse">
<stop stop-color="#E09FA3" stop-opacity="0.7"/>
<stop offset="0.74" stop-color="#F7CAC9" stop-opacity="0.3"/>
</linearGradient>
<clipPath id="clip0_1621_1084">
<rect width="50" height="50" fill="white"/>
</clipPath>
</defs>
</svg>
