<svg width="20" height="21" viewBox="0 0 20 21" fill="none" xmlns="http://www.w3.org/2000/svg">
<mask id="path-1-inside-1_189_4281" fill="white">
<path d="M6.15203 16.8893C5.79097 16.8893 5.48364 16.7625 5.23004 16.5089C4.97644 16.2553 4.84964 15.9483 4.84964 15.5877V5.6062H4.0437V4.80026H7.26745V4.17969H12.1031V4.80026H15.3268V5.6062H14.5209V15.5877C14.5209 15.9585 14.3968 16.2682 14.1485 16.517C13.9003 16.7657 13.5903 16.8899 13.2185 16.8893H6.15203ZM13.715 5.6062H5.65558V15.5877C5.65558 15.7323 5.70205 15.851 5.795 15.944C5.88795 16.0369 6.00697 16.0834 6.15203 16.0834H13.2193C13.3429 16.0834 13.4565 16.0318 13.5602 15.9286C13.6639 15.8255 13.7155 15.7116 13.715 15.5869V5.6062ZM7.91865 14.4715H8.72459V7.21807H7.91865V14.4715ZM10.6459 14.4715H11.4519V7.21807H10.6459V14.4715Z"/>
</mask>
<path d="M6.15203 16.8893C5.79097 16.8893 5.48364 16.7625 5.23004 16.5089C4.97644 16.2553 4.84964 15.9483 4.84964 15.5877V5.6062H4.0437V4.80026H7.26745V4.17969H12.1031V4.80026H15.3268V5.6062H14.5209V15.5877C14.5209 15.9585 14.3968 16.2682 14.1485 16.517C13.9003 16.7657 13.5903 16.8899 13.2185 16.8893H6.15203ZM13.715 5.6062H5.65558V15.5877C5.65558 15.7323 5.70205 15.851 5.795 15.944C5.88795 16.0369 6.00697 16.0834 6.15203 16.0834H13.2193C13.3429 16.0834 13.4565 16.0318 13.5602 15.9286C13.6639 15.8255 13.7155 15.7116 13.715 15.5869V5.6062ZM7.91865 14.4715H8.72459V7.21807H7.91865V14.4715ZM10.6459 14.4715H11.4519V7.21807H10.6459V14.4715Z" fill="#EF4444"/>
<path d="M5.65558 5.6062H4.90558V16.0834H5.65558H6.40558V5.6062H5.65558ZM4.84964 15.5877H6.34964H4.84964ZM4.84964 5.6062H6.34964V4.1062H4.84964V5.6062ZM4.0437 5.6062H2.5437V7.1062H4.0437V5.6062ZM4.0437 4.80026V3.30026H2.5437V4.80026H4.0437ZM7.26745 4.80026V6.30026H8.76745V4.80026H7.26745ZM7.26745 4.17969V2.67969H5.76745V4.17969H7.26745ZM12.1031 4.17969H13.6031V2.67969H12.1031V4.17969ZM12.1031 4.80026H10.6031V6.30026H12.1031V4.80026ZM15.3268 4.80026H16.8268V3.30026H15.3268V4.80026ZM15.3268 5.6062V7.1062H16.8268V5.6062H15.3268ZM14.5209 5.6062V4.1062H13.0209V5.6062H14.5209ZM13.2185 16.8893L13.2207 15.3893H13.2185V16.8893ZM13.715 5.6062H15.215V4.1062H13.715V5.6062ZM5.65558 5.6062V4.1062H4.15558V5.6062H5.65558ZM6.15203 16.0834V14.5834V16.0834ZM13.715 15.5869H12.2149L12.215 15.5934L13.715 15.5869ZM7.91865 14.4715H6.41865V15.9715H7.91865V14.4715ZM8.72459 14.4715V15.9715H10.2246V14.4715H8.72459ZM8.72459 7.21807H10.2246V5.71807H8.72459V7.21807ZM7.91865 7.21807V5.71807H6.41865V7.21807H7.91865ZM10.6459 14.4715H9.14594V15.9715H10.6459V14.4715ZM11.4519 14.4715V15.9715H12.9519V14.4715H11.4519ZM11.4519 7.21807H12.9519V5.71807H11.4519V7.21807ZM10.6459 7.21807V5.71807H9.14594V7.21807H10.6459ZM6.15203 16.8893V15.3893C6.15078 15.3893 6.17998 15.3899 6.22284 15.4076C6.24248 15.4157 6.25923 15.4251 6.27222 15.4339C6.28499 15.4426 6.29094 15.4485 6.2907 15.4483L5.23004 16.5089L4.16938 17.5696C4.70641 18.1066 5.39616 18.3893 6.15203 18.3893V16.8893ZM5.23004 16.5089L6.2907 15.4483C6.29037 15.4479 6.29625 15.4538 6.30488 15.4665C6.31366 15.4795 6.32305 15.4962 6.33118 15.5159C6.34893 15.5589 6.34964 15.5884 6.34964 15.5877H4.84964H3.34964C3.34964 16.3437 3.63282 17.033 4.16938 17.5696L5.23004 16.5089ZM4.84964 15.5877H6.34964V5.6062H4.84964H3.34964V15.5877H4.84964ZM4.84964 5.6062V4.1062H4.0437V5.6062V7.1062H4.84964V5.6062ZM4.0437 5.6062H5.5437V4.80026H4.0437H2.5437V5.6062H4.0437ZM4.0437 4.80026V6.30026H7.26745V4.80026V3.30026H4.0437V4.80026ZM7.26745 4.80026H8.76745V4.17969H7.26745H5.76745V4.80026H7.26745ZM7.26745 4.17969V5.67969H12.1031V4.17969V2.67969H7.26745V4.17969ZM12.1031 4.17969H10.6031V4.80026H12.1031H13.6031V4.17969H12.1031ZM12.1031 4.80026V6.30026H15.3268V4.80026V3.30026H12.1031V4.80026ZM15.3268 4.80026H13.8268V5.6062H15.3268H16.8268V4.80026H15.3268ZM15.3268 5.6062V4.1062H14.5209V5.6062V7.1062H15.3268V5.6062ZM14.5209 5.6062H13.0209V15.5877H14.5209H16.0209V5.6062H14.5209ZM14.5209 15.5877H13.0209C13.0209 15.6032 13.0189 15.5814 13.0354 15.5402C13.0431 15.5209 13.0528 15.5028 13.0634 15.4869C13.0738 15.4713 13.0827 15.4616 13.0867 15.4575L14.1485 16.517L15.2104 17.5765C15.7559 17.0298 16.0209 16.3315 16.0209 15.5877H14.5209ZM14.1485 16.517L13.0867 15.4575C13.0913 15.4529 13.1014 15.4437 13.1176 15.4328C13.134 15.4219 13.1527 15.412 13.1724 15.4041C13.2144 15.3872 13.2366 15.3893 13.2207 15.3893L13.2185 16.8893L13.2163 18.3893C13.9615 18.3904 14.6625 18.1255 15.2104 17.5765L14.1485 16.517ZM13.2185 16.8893V15.3893H6.15203V16.8893V18.3893H13.2185V16.8893ZM13.715 5.6062V4.1062H5.65558V5.6062V7.1062H13.715V5.6062ZM5.65558 5.6062H4.15558V15.5877H5.65558H7.15558V5.6062H5.65558ZM5.65558 15.5877H4.15558C4.15558 16.0866 4.33076 16.601 4.73434 17.0046L5.795 15.944L6.85566 14.8833C6.95085 14.9785 7.03273 15.0992 7.08725 15.2385C7.14068 15.375 7.15558 15.4977 7.15558 15.5877H5.65558ZM5.795 15.944L4.73434 17.0046C5.13904 17.4093 5.65437 17.5834 6.15203 17.5834V16.0834V14.5834C6.24111 14.5834 6.3633 14.5981 6.49962 14.6513C6.63884 14.7057 6.75991 14.7875 6.85566 14.8833L5.795 15.944ZM6.15203 16.0834V17.5834H13.2193V16.0834V14.5834H6.15203V16.0834ZM13.2193 16.0834V17.5834C13.8112 17.5834 14.2888 17.3197 14.6181 16.9921L13.5602 15.9286L12.5023 14.8652C12.5559 14.812 12.6458 14.7385 12.7772 14.6788C12.9132 14.6171 13.0651 14.5834 13.2193 14.5834V16.0834ZM13.5602 15.9286L14.6181 16.9921C14.9531 16.6588 15.2175 16.176 15.2149 15.5805L13.715 15.5869L12.215 15.5934C12.2143 15.4394 12.2474 15.2859 12.3102 15.1471C12.371 15.0128 12.4467 14.9206 12.5023 14.8652L13.5602 15.9286ZM13.715 15.5869H15.215V5.6062H13.715H12.215V15.5869H13.715ZM7.91865 14.4715V15.9715H8.72459V14.4715V12.9715H7.91865V14.4715ZM8.72459 14.4715H10.2246V7.21807H8.72459H7.22459V14.4715H8.72459ZM8.72459 7.21807V5.71807H7.91865V7.21807V8.71807H8.72459V7.21807ZM7.91865 7.21807H6.41865V14.4715H7.91865H9.41865V7.21807H7.91865ZM10.6459 14.4715V15.9715H11.4519V14.4715V12.9715H10.6459V14.4715ZM11.4519 14.4715H12.9519V7.21807H11.4519H9.95188V14.4715H11.4519ZM11.4519 7.21807V5.71807H10.6459V7.21807V8.71807H11.4519V7.21807ZM10.6459 7.21807H9.14594V14.4715H10.6459H12.1459V7.21807H10.6459Z" fill="#EF4444" mask="url(#path-1-inside-1_189_4281)"/>
</svg>
