<svg width="20" height="18" viewBox="0 0 20 18" fill="none" xmlns="http://www.w3.org/2000/svg">
<path d="M3.125 0C2.2962 0 1.50134 0.370395 0.915291 1.0297C0.32924 1.68901 0 2.58322 0 3.51562V14.4844C0 15.4168 0.32924 16.311 0.915291 16.9703C1.50134 17.6296 2.2962 18 3.125 18H16.875C17.7038 18 18.4987 17.6296 19.0847 16.9703C19.6708 16.311 20 15.4168 20 14.4844V3.51562C20 2.58322 19.6708 1.68901 19.0847 1.0297C18.4987 0.370395 17.7038 0 16.875 0H3.125ZM1.25 3.51562C1.25 2.95618 1.44754 2.41966 1.79917 2.02407C2.15081 1.62849 2.62772 1.40625 3.125 1.40625H16.875C17.3723 1.40625 17.8492 1.62849 18.2008 2.02407C18.5525 2.41966 18.75 2.95618 18.75 3.51562V4.01625L10.001 9.19688L1.25 3.97294V3.51562ZM1.25 5.56537L9.707 10.6132C9.7969 10.6669 9.8971 10.6951 9.99888 10.6953C10.1007 10.6955 10.2009 10.6677 10.291 10.6144L18.75 5.60531V14.4844C18.75 15.0438 18.5525 15.5803 18.2008 15.9759C17.8492 16.3715 17.3723 16.5938 16.875 16.5938H3.125C2.62772 16.5938 2.15081 16.3715 1.79917 15.9759C1.44754 15.5803 1.25 15.0438 1.25 14.4844V5.56537Z" fill="#E09FA3"/>
</svg>
